<?xml version="1.0" encoding="UTF-8"?>
<svg version="1.1" viewBox="0 0 2048 830" width="1400" height="568" xmlns="http://www.w3.org/2000/svg">
<path transform="translate(603,252)" d="m0 0h29l5 5 10 17 24 38 15 24 7 10 2 1-1-21v-74h31l1 1v149l-12 1h-15l-5-4-11-17-12-19-16-25-12-19-6-9-2-1v93l-2 1h-29l-1-1z" fill="#505759"/>
<path transform="translate(828,248)" d="m0 0h23l14 3 12 5 11 8 7 7 7 11 6 14 3 14v35l-4 17-8 16-8 10-11 9-11 5-16 4-7 1h-15l-16-3-11-4-10-7-9-8-9-14-6-15-3-17v-25l3-15 6-16 7-10 8-9 10-7 13-6zm6 27-9 2-9 5-8 9-5 11-3 14v23l4 16 5 10 6 7 11 6 4 1h17l9-3 8-5 8-9 5-14 2-16v-9l-2-16-4-11-7-11-10-7-14-3z" fill="#515758"/>
<path transform="translate(1927,252)" d="m0 0h64l16 2 12 5 8 6 8 9 4 10 2 14-1 13-5 12-7 9-10 7 9 19 16 33 5 6v5l-3 1h-31l-3-4-14-31-8-18-1-4h-29v56l-7 1h-23l-2-1zm32 26v42h27l11-2 8-6 3-7v-11l-4-8-7-6-13-2z" fill="#515759"/>
<path transform="translate(953,252)" d="m0 0h65l15 2 12 5 8 6 8 9 4 9 2 9v13l-3 12-6 10-7 8-7 4 9 19 21 42v3h-32l-4-2-14-31-9-21-2-2h-28v55l-13 1h-19zm31 26v41l1 1h26l12-2 6-4 4-6 1-3v-11l-5-10-6-4-10-2z" fill="#515657"/>
<path transform="translate(1525,248)" d="m0 0h26l14 3 14 7 9 8 7 12 3 10v6l-15 2-15 1-6-12-4-5-8-4-4-1h-18l-10 4-5 6-1 2v8l4 7 10 5 18 4 19 4 13 5 10 6 8 8 5 10 2 9v14l-4 13-8 11-10 8-13 5-16 3h-21l-16-3-12-5-8-6-7-7-8-16-3-12 1-5h31l2 3 3 10 7 8 10 4 5 1h13l10-3 8-7 2-4-1-10-6-8-11-4-31-6-16-5-9-6-7-7-6-12-2-9v-11l4-13 7-10 7-6 12-6 11-3z" fill="#515758"/>
<path transform="translate(1253,252)" d="m0 0h31l1 1v57h59v-58h32l1 1v149l-12 1h-21v-63h-36l-23-1v63l-4 1h-28z" fill="#515758"/>
<path transform="translate(391,456)" d="m0 0h3l-2 5-8 10-9 10-12 17-10 15-15 26-15 29-11 24-14 34-11 29-12 32-4 6-4 2h-9l-6-3-6-9-11-23-14-26-12-20-16-25-12-16-5-6v-2l14-1h10l13 2 16 8 10 8 10 11 9 15 3-1 8-16 11-17 10-15 14-19 11-13 12-14 24-24 8-7 13-11 12-9z" fill="#F65E2E"/>
<path transform="translate(281,296)" d="m0 0 5 2 12 9 7 7 15 11 23 15 24 14 30 15 34 15 41 16 38 14 8 4 4 5 1 3v7l-3 5-10 6-23 11-23 12-17 10-21 13-20 14-13 9-2-1v-27l3-12 7-13 11-13 13-9 10-6h2v-2l-6-2-16-8-24-15-19-14-14-11-10-9-8-7-17-16-11-12-12-14-10-12-9-13z" fill="#0C74BC"/>
<path transform="translate(253,169)" d="m0 0 8 1 5 5 10 19 11 22 12 21 14 23 13 19 13 18v2l-2 1h-26l-12-3-10-5-9-7-10-10-9-14-3-5-3 1-8 17-14 22-12 17-11 14-9 11-11 12-12 13-16 15-11 9-14 12-13 9-2-1 8-11 10-11 14-19 12-19 12-21 12-23 11-23 15-36 16-42 9-24 4-6 3-2z" fill="#048A8A"/>
<path transform="translate(123,351)" d="m0 0 2 1v30l-4 13-7 11-9 10-7 6-15 9-4 1v2l6 2 22 12 24 16 19 14 14 12 11 9 27 27 7 8 11 13 12 15 3 6-5-2-11-8-10-9-18-13-22-14-22-12-23-12-28-13-37-15-30-11-29-11v-24l16-8 33-17 27-16 22-14 17-12z" fill="#038245"/>
<path transform="translate(1808,252)" d="m0 0h29l4 8 15 40 16 42 19 51 3 7v3h-33l-3-4-11-30-52-1-3 10-8 24-2 1h-13l-19-1 1-5 6-14 17-46 16-42 14-38 2-4zm12 39-3 7-12 36-2 8h36l-3-11-13-38-1-2z" fill="#515657"/>
<path transform="translate(1094,252)" d="m0 0h123l1 1v25l-1 1h-45v123l-12 1h-20l-1-1v-102l1-21h-46z" fill="#50585A"/>
<path transform="translate(1625,252)" d="m0 0h123v26l-1 1h-44v123l-15 1h-17l-1-2v-37l1-85h-47v-26z" fill="#515656"/>
<path transform="translate(1554,433)" d="m0 0h13l14 2 10 4 9 7 7 9 7 14v5l-9 2h-8l-3-4-5-10-8-7-10-4-4-1h-13l-13 4-9 7-7 9-5 13-3 16v22l3 14 6 12 8 9 14 7 5 1h21l16-4 6-4 2-3v-30l-1-1h-32l-2-2v-14l1-1h52l1 1v54l-4 6-11 7-13 5-14 3-9 1h-10l-13-2-12-4-11-7-9-9-8-14-5-15-2-13v-20l3-17 4-11 6-11 9-11 13-9 10-4z" fill="#50585A"/>
<path transform="translate(614,436)" d="m0 0h28l23 1 16 4 11 7 7 9 4 11v18l-3 10-6 9-5 5-10 5 8 16 14 30 7 14v3h-19l-3-3-12-25-10-23-3-6-1-1h-38v58h-17l-1-1v-140zm8 17v51h33l16-3 8-6 4-8 1-4v-10l-3-9-6-7-7-3-6-1z" fill="#515657"/>
<path transform="translate(1984,472)" d="m0 0h11l12 3 8 4 9 9 7 14 3 13v21l-3 15-6 12-8 9-9 6-11 3h-17l-10-3-9-6-5-4v48l-1 1h-15l-2-3v-138l15-1 2 1v12l15-11 9-4zm-3 15-11 4-6 5-6 10-2 8v28l4 11 7 8 6 4 8 2h9l9-3 8-6 5-9 3-13v-21l-4-13-6-8-9-6-4-1z" fill="#4F595B"/>
<path transform="translate(762,472)" d="m0 0h10l11 2 10 4 9 8 7 12 3 11 1 8v12l-1 2-11 1h-41l-25-1 4 15 5 9 5 5 8 5 4 1h14l10-4 6-7 3-5 8-1h9l1 4-6 11-7 8-9 6-11 3h-23l-11-3-9-5-8-9-7-14-3-14v-17l3-14 7-14 7-8 11-7 9-3zm-1 14-11 4-7 7-6 12-1 8 1 1h58l1-1-1-9-6-12-8-7-9-3z" fill="#50585B"/>
<path transform="translate(1381,472)" d="m0 0h11l14 3 8 4 8 7 6 10 3 9 2 18v7l-1 1-21 1h-29l-27-1 4 16 7 11 9 6 6 2h14l8-3 6-5 5-8 7-1h10l1 3-6 12-8 9-12 6-8 2h-22l-13-4-9-6-7-8-6-12-3-12v-22l3-13 8-15 7-7 10-6 9-3zm0 14-11 4-7 7-7 14v7h58l2-1-1-8-4-9-4-6-6-5-9-3z" fill="#50585A"/>
<path transform="translate(978,472)" d="m0 0 16 1 13 4 8 6 5 5 7 10 4 12 1 5v22l-4 16-7 12-7 7-14 7-9 2h-20l-13-4-9-6-7-7-8-16-2-9v-24l4-13 6-11 7-8 9-6 12-4zm-2 15-11 4-7 7-5 10-2 9v22l3 10 6 9 10 7 8 2h8l10-3 8-6 6-9 2-6 1-7v-20l-2-9-5-9-8-7-6-3-5-1z" fill="#505859"/>
<path transform="translate(1750,472)" d="m0 0 16 1 10 3 9 5 6 5 7 10 5 13 1 5v25l-3 12-7 13-8 8-14 7-9 2h-20l-13-4-9-6-8-9-6-13-3-13v-18l3-13 6-12 9-10 9-6 11-4zm-2 15-10 4-7 6-6 12-2 8v22l3 10 6 8 8 7 5 2 13 1 10-3 8-6 4-5 4-10 1-5v-23l-4-13-9-10-8-4-4-1z" fill="#505859"/>
<path transform="translate(866,472)" d="m0 0h15l16 4 9 6 6 7 3 6v5l-5 2-9 1-5-5-6-7-7-3-5-1h-10l-13 4-5 6-1 2v6l3 5 10 5 28 5 14 5 9 8 4 9 1 11-3 10-7 9-10 6-11 3-14 1-16-2-11-4-8-6-7-11-2-5v-5l1-1h14l4 4 4 7 8 5 8 2h15l10-4 5-6 1-6-4-9-7-4-27-5-16-5-6-4-5-7-2-6v-14l5-10 8-7 11-5z" fill="#505859"/>
<path transform="translate(293,312)" d="m0 0 7 1v2h2l2 5h2l5 5 13 11 16 12 7 7 10 8 16 11 25 15 23 12 56 27-2 4-25 15-20 14-13 10-13 12-6 9-5 8-1 5h-1v-20l3-12 7-13 11-13 13-9 10-6h2v-2l-6-2-16-8-24-15-19-14-14-11-10-9-8-7-17-16-11-12-12-14-7-8z" fill="#15A7E0"/>
<path transform="translate(1053,476)" d="m0 0h19l1 76 4 8 5 4 3 1h13l12-6 7-6 4-11 1-66h18v101l-1 1h-15l-1-1-1-9-1-2-8 7-5 4-9 3-6 1h-15l-11-4-7-7-5-12-1-6z" fill="#50585A"/>
<path transform="translate(1826,476)" d="m0 0h18l1 75 3 8 6 5 3 1h12l10-4 8-6 4-5 2-7 1-67h18v101l-1 1h-15l-3-12-8 7-5 4-9 3-5 1h-16l-11-4-8-9-4-11-1-6z" fill="#50585B"/>
<path transform="translate(380,465)" d="m0 0 2 1-25 25-9 11-12 15-12 17-16 26-15 28-10 19-13 26-8 18-5-5-11-18-10-15-11-15-8-10-9-9-13-8-7-3h-11l-1-3 14-1h10l13 2 16 8 10 8 10 11 9 15 3-1 8-16 11-17 10-15 14-19 11-13 12-14 24-24 8-7 13-11z" fill="#FDAB4E"/>
<path transform="translate(1273,472)" d="m0 0h12l13 3 10 6 7 8 6 12v5l-13 4-4-1-8-14-5-4-8-3h-10l-9 3-8 7-5 11-2 7v23l3 10 6 9 8 6 7 2h10l9-3 6-5 4-8 3-7 15-1 2 2-1 9-5 10-9 10-8 5-10 3h-22l-11-3-10-6-8-9-6-13-3-16v-14l2-12 5-12 7-10 10-8 13-5z" fill="#50585A"/>
<path transform="translate(255,214)" d="m0 0 4 4 10 20 10 15 10 13 10 12v2h2l7 8 3 2v2l5 2 8 4 13 1v1h-26l-12-3-10-5-9-7-10-10-9-14-3-5-3 1-8 17-14 22-12 17-11 14-9 11-11 12-12 13-16 15-2-1 7-8 5-5 7-8 7-11 6-8 4-4 4-7 4-10 7-14 10-17 8-16 9-19 14-31z" fill="#08B7B7"/>
<path transform="translate(124,369)" d="m0 0h1v13l-4 13-7 11-9 10-7 6-15 9-4 1v2l6 2 22 12 24 16 19 14 21 18-2 1-5-4h-10l-1 2-11-7-13-8-18-10-34-17-29-12-10-5 1-3 16-8 14-8 17-12 13-10 12-12 3-5h2l2-4z" fill="#36A75D"/>
<path transform="translate(1684,474)" d="m0 0h13v14l-1 2-14 1-10 4-8 7-3 5-1 4-1 66-1 1h-15l-2-1v-101l1-1h15l1 4-1 11 9-7 8-6z" fill="#4F595B"/>
<path transform="translate(1208,474)" d="m0 0h13l1 1v14l-1 1-14 1-10 4-8 7-4 7-1 68-1 1h-15l-2-2v-100l2-1h13l1 1v13l7-4 8-7z" fill="#4F5A5D"/>
<path transform="translate(175,336)" d="m0 0h2v5l-9 12-10 13-4 4-1-3 10-15 8-13z" fill="#038652"/>
<path transform="translate(130,396)" d="m0 0 3 2-7 9-4 1 4-7z" fill="#0985A6"/>
<path transform="translate(391,456)" d="m0 0h3l-2 5-3 4-2-1 2-3-2-1z" fill="#FDAE52"/>
</svg>
